<svg width="15" height="16" viewBox="0 0 15 16" fill="none" xmlns="http://www.w3.org/2000/svg">
<g id="Vector">
<path id="Vector-34" fill-rule="evenodd" clip-rule="evenodd" d="M10.4522 8.0002C10.479 9.51864 9.27063 10.7717 7.75222 10.8002C6.23341 10.7723 5.02447 9.51902 5.05122 8.0002C5.02446 6.48175 6.2328 5.22866 7.75122 5.2002C9.27002 5.22811 10.479 6.48137 10.4522 8.0002Z" stroke="#C4C4C4" stroke-linecap="round" stroke-linejoin="round"/>
<path id="Vector-35" d="M13.8283 10.683C13.2601 12.1419 12.2124 13.3639 10.8573 14.148C9.53083 14.9102 7.97521 15.172 6.47231 14.886C4.95631 14.5892 3.59247 13.77 2.61831 12.571C0.566955 10.0352 0.454952 6.44374 2.34431 3.78503C3.24122 2.52221 4.55036 1.61162 6.04631 1.21003C7.52463 0.821041 9.09347 0.97576 10.4673 1.64603C11.868 2.33545 12.9903 3.48385 13.6473 4.90003L13.6943 5.00003C14.4083 6.62903 13.8663 9.40003 12.1403 9.40003C11.1876 9.37872 10.4322 8.58976 10.4523 7.63703" stroke="#C4C4C4" stroke-linecap="round" stroke-linejoin="round"/>
</g>
</svg>
